<svg width="360" height="48" viewBox="0 0 360 48" fill="none" xmlns="http://www.w3.org/2000/svg">
<line y1="47.75" x2="360" y2="47.75" stroke="#DADADA" stroke-width="0.5"/>
<path d="M121.36 18.88H116.944V30H121.36C124.752 30 127.088 27.84 127.088 24.432C127.088 21.024 124.752 18.88 121.36 18.88ZM121.28 27.632H119.616V21.248H121.28C123.136 21.248 124.384 22.368 124.384 24.464C124.384 26.512 123.136 27.632 121.28 27.632ZM132.762 30.208C135.466 30.208 137.386 28.304 137.386 25.792C137.386 23.264 135.466 21.376 132.762 21.376C130.074 21.376 128.154 23.264 128.154 25.792C128.154 28.304 130.074 30.208 132.762 30.208ZM132.778 27.84C131.61 27.84 130.842 26.976 130.842 25.792C130.842 24.576 131.61 23.744 132.778 23.744C133.946 23.744 134.698 24.576 134.698 25.776C134.698 26.992 133.93 27.84 132.778 27.84ZM144.073 21.568V26.48C144.073 27.28 143.529 27.84 142.681 27.84C141.817 27.84 141.305 27.264 141.305 26.48V21.568H138.633V26.832C138.633 28.736 139.721 30.208 141.881 30.208C142.809 30.208 143.641 29.856 144.233 29.296V30H146.729V21.568H144.073ZM154.692 21.568V22.336C154.1 21.728 153.3 21.376 152.26 21.376C149.828 21.376 148.068 23.264 148.068 25.536C148.068 27.808 149.812 29.648 152.26 29.648C153.3 29.648 154.1 29.296 154.692 28.688V28.928C154.692 30.08 153.876 30.848 152.468 30.848C151.524 30.848 150.756 30.512 150.42 29.744L148.164 30.624C148.724 32.048 150.036 33.072 152.452 33.072C155.444 33.072 157.156 31.264 157.156 28.672V21.568H154.692ZM152.612 27.616C151.524 27.616 150.708 26.752 150.708 25.664C150.708 24.576 151.524 23.712 152.612 23.712C153.748 23.712 154.532 24.56 154.532 25.664C154.532 26.768 153.748 27.616 152.612 27.616ZM158.83 30H161.502V18.304H158.83V30ZM169.481 21.568V22.448C168.889 21.856 168.089 21.536 167.049 21.536C164.601 21.536 162.841 23.264 162.841 25.792C162.841 28.32 164.601 30.208 167.049 30.208C168.089 30.208 168.889 29.856 169.481 29.232V30H171.945V21.568H169.481ZM167.433 27.856C166.297 27.856 165.497 26.992 165.497 25.792C165.497 24.592 166.313 23.712 167.433 23.712C168.601 23.712 169.385 24.56 169.385 25.792C169.385 27.008 168.601 27.856 167.433 27.856ZM176.851 30.208C179.075 30.208 180.483 29.152 180.483 27.408C180.483 24.304 176.083 25.072 176.083 23.872C176.083 23.52 176.355 23.312 176.899 23.312C177.459 23.312 177.859 23.584 178.051 24.112L180.259 23.248C179.923 22.064 178.675 21.376 176.947 21.376C174.819 21.376 173.475 22.368 173.475 24C173.475 26.896 177.875 26.256 177.875 27.584C177.875 27.968 177.555 28.208 176.947 28.208C176.083 28.208 175.523 27.808 175.299 27.104L173.091 27.952C173.587 29.424 174.947 30.208 176.851 30.208ZM190.507 30.208C193.787 30.208 196.347 27.696 196.347 24.448C196.347 21.168 193.787 18.672 190.507 18.672C187.211 18.672 184.635 21.168 184.635 24.448C184.635 27.696 187.211 30.208 190.507 30.208ZM190.507 27.68C188.619 27.68 187.355 26.336 187.355 24.432C187.355 22.56 188.571 21.2 190.507 21.2C192.427 21.2 193.627 22.56 193.627 24.432C193.627 26.336 192.395 27.68 190.507 27.68ZM197.755 30H200.427V18.304H197.755V30ZM203.462 20.432C204.406 20.432 205.142 19.76 205.142 18.8C205.142 17.84 204.406 17.152 203.462 17.152C202.518 17.152 201.782 17.84 201.782 18.8C201.782 19.76 202.518 20.432 203.462 20.432ZM202.118 30H204.79V21.568H202.118V30ZM212.065 21.568L210.257 27.376L208.465 21.568H205.713L208.705 30H211.825L214.817 21.568H212.065ZM217.552 26.576H223.664C223.696 26.352 223.728 26.032 223.728 25.616C223.728 23.536 222.096 21.36 219.344 21.36C216.912 21.36 214.96 23.36 214.96 25.792C214.96 28.304 216.72 30.208 219.504 30.208C221.6 30.208 222.656 29.36 223.328 28.48L221.328 27.152C220.992 27.712 220.528 28.032 219.584 28.032C218.576 28.032 217.824 27.52 217.552 26.576ZM217.52 24.912C217.744 23.888 218.432 23.36 219.408 23.36C220.384 23.36 221.024 23.952 221.248 24.912H217.52ZM226.364 20.432C227.308 20.432 228.044 19.76 228.044 18.8C228.044 17.84 227.308 17.152 226.364 17.152C225.42 17.152 224.684 17.84 224.684 18.8C224.684 19.76 225.42 20.432 226.364 20.432ZM225.02 30H227.692V21.568H225.02V30ZM231.895 22.288V21.568H229.383V30H232.055V25.488C232.055 24.384 232.823 23.856 234.231 23.856V21.36C233.287 21.36 232.471 21.728 231.895 22.288ZM241.456 21.568V22.448C240.864 21.856 240.064 21.536 239.024 21.536C236.576 21.536 234.816 23.264 234.816 25.792C234.816 28.32 236.576 30.208 239.024 30.208C240.064 30.208 240.864 29.856 241.456 29.232V30H243.92V21.568H241.456ZM239.408 27.856C238.272 27.856 237.472 26.992 237.472 25.792C237.472 24.592 238.288 23.712 239.408 23.712C240.576 23.712 241.36 24.56 241.36 25.792C241.36 27.008 240.576 27.856 239.408 27.856Z" fill="#333333"/>
<path d="M31 30L25 24L31 18" stroke="#5E49FF" stroke-width="2" stroke-linecap="round" stroke-linejoin="round"/>
</svg>
